<?xml version="1.0" encoding="UTF-8" standalone="no"?>
<!-- Created with Inkscape (http://www.inkscape.org/) -->

<svg
   xmlns:dc="http://purl.org/dc/elements/1.1/"
   xmlns:cc="http://creativecommons.org/ns#"
   xmlns:rdf="http://www.w3.org/1999/02/22-rdf-syntax-ns#"
   xmlns:svg="http://www.w3.org/2000/svg"
   xmlns="http://www.w3.org/2000/svg"
   xmlns:sodipodi="http://sodipodi.sourceforge.net/DTD/sodipodi-0.dtd"
   xmlns:inkscape="http://www.inkscape.org/namespaces/inkscape"
   width="990"
   height="765"
   id="svg2"
   version="1.1"
   inkscape:version="0.48.4 r9939"
   sodipodi:docname="Centennial-C-Logo.svg"
   inkscape:export-filename="C:\Users\Brian\Google Drive\bahemr\CYHAGraphics\Centennial-C-Logo.png"
   inkscape:export-xdpi="240"
   inkscape:export-ydpi="240">
  <defs
     id="defs4" />
  <sodipodi:namedview
     id="base"
     pagecolor="#ffffff"
     bordercolor="#666666"
     borderopacity="1.0"
     inkscape:pageopacity="0.0"
     inkscape:pageshadow="2"
     inkscape:zoom="0.60130719"
     inkscape:cx="317.14314"
     inkscape:cy="437.31315"
     inkscape:document-units="px"
     inkscape:current-layer="layer3"
     showgrid="false"
     inkscape:window-width="1920"
     inkscape:window-height="1137"
     inkscape:window-x="-8"
     inkscape:window-y="-8"
     inkscape:window-maximized="1" />
  <metadata
     id="metadata7">
    <rdf:RDF>
      <cc:Work
         rdf:about="">
        <dc:format>image/svg+xml</dc:format>
        <dc:type
           rdf:resource="http://purl.org/dc/dcmitype/StillImage" />
        <dc:title></dc:title>
      </cc:Work>
    </rdf:RDF>
  </metadata>
  <g
     inkscape:groupmode="layer"
     id="layer6"
     inkscape:label="White"
     style="display:inline"
     transform="translate(0,-287.36218)" />
  <g
     inkscape:groupmode="layer"
     id="layer5"
     inkscape:label="Black2"
     style="display:inline"
     transform="translate(0,-287.36218)" />
  <g
     inkscape:groupmode="layer"
     id="layer2"
     inkscape:label="Red"
     style="display:inline"
     transform="translate(0,-287.36218)" />
  <g
     inkscape:groupmode="layer"
     id="layer3"
     inkscape:label="Black1"
     style="display:inline"
     transform="translate(0,-287.36218)">
    <g
       id="g4364">
      <path
         id="path4358"
         d="m 703.40867,370.34058 c 37.8407,0.42682 76.37665,-0.0144 113.32855,8.47609 54.79187,13.92155 104.46756,56.11536 118.53081,111.93829 11.86753,42.85889 0.36842,87.77804 -11.61539,129.4735 -67.3603,0.11954 -134.7206,0.23923 -202.08091,0.35878 5.80653,-19.68518 9.94971,-41.33686 3.22899,-61.3508 -2.86342,-13.37711 -16.39541,-20.5617 -29.32998,-20.49511 -36.37705,-2.97716 -68.07526,20.78221 -89.51476,47.89667 -36.31001,42.47367 -54.94175,97.91129 -57.00062,153.46668 -1.81328,21.22578 7.30377,42.45416 23.32047,56.23823 15.48272,14.51513 39.07602,12.58301 57.40425,5.38165 32.64511,-19.30805 52.07622,-53.96255 68.88511,-86.82393 l 202.39483,0.7624 c -7.66867,25.31256 -17.46524,49.84176 -29.46452,73.4595 -27.51802,58.18914 -75.06529,104.26333 -129.96682,136.73872 -39.07767,24.94423 -82.85963,41.47805 -128.39716,50.18388 -43.94556,10.77884 -89.74601,7.10992 -133.91336,-0.26908 C 376.00669,961.49437 277.35995,926.5953 181.56814,886.66491 228.61654,869.77137 275.6726,852.89914 322.74672,836.07742 233.51657,813.99542 144.28519,791.91838 55.054553,769.83829 146.10921,749.73252 237.16265,729.6213 328.21807,709.51898 259.30355,682.31053 190.38799,655.10473 121.47307,627.89731 213.53442,614.53914 305.57447,601.0344 397.64133,587.71433 339.04289,558.42574 280.44071,529.14462 221.84081,499.85892 c 76.77896,-4.36631 153.56272,-8.64985 230.33456,-13.14019 -45.94023,-23.34716 -91.84638,-46.76139 -137.7702,-70.14082 l 33.27653,-4.75379 c 118.39813,-15.44765 236.03756,-39.04167 355.72697,-41.48354 z"
         style="fill:#ffffff;stroke:none;display:inline" />
      <path
         style="fill:#d40000;fill-opacity:1;stroke:#000000;stroke-width:1.43510628;display:inline"
         d="m 703.67775,393.50007 c -105.545,2.39766 -209.64754,20.50109 -313.88465,35.65342 49.4909,25.18459 98.97738,50.37791 148.48865,75.52247 -76.29517,4.47506 -152.60063,8.77253 -228.89945,13.18504 54.7165,27.32068 109.33501,54.83753 164.09543,82.07014 -87.75504,12.5434 -175.46978,25.36628 -263.20746,38.03032 65.39634,25.96024 130.71126,51.65366 196.11624,77.63028 -82.95652,18.44233 -165.90918,36.90201 -248.8564,55.38613 81.50098,20.39483 162.99668,40.81091 244.50624,61.17141 -51.94309,18.53824 -103.87753,37.10062 -155.79873,55.70006 103.9537,39.40403 212.95848,72.85629 325.31466,70.8618 111.80575,-9.33957 220.65404,-73.14266 275.6693,-172.04281 8.27205,-15.46772 15.54062,-31.51134 21.67279,-48.0252 -52.12734,-0.23626 -104.25458,-0.49144 -156.38174,-0.7624 -19.43497,37.27923 -45.92762,75.94006 -87.63118,89.73899 -34.72472,7.8795 -69.05158,-6.53794 -103.34492,-10.53052 -69.60933,-12.94622 -223.2435,-42.63021 -223.2435,-42.63021 l 228.61121,-53.82878 3.08339,-21.40338 -182.4109,-50.63911 209.67533,-31.21107 c 0,0 8.50823,-11.43784 10.71845,-18.02852 -48.08932,-21.74212 -96.33934,-43.13595 -144.27303,-65.20765 91.78784,-6.42784 183.60818,-13.4288 275.45072,-18.43214 26.00293,2.052 49.35658,23.60737 51.03597,50.13902 1.67448,10.4863 1.45209,21.30812 -0.0897,31.79658 52.1123,-0.11955 104.2246,-0.23919 156.3369,-0.35878 12.39339,-42.02358 17.77613,-91.12784 -5.60589,-130.59467 -29.20428,-48.93202 -88.48007,-74.56012 -144.49726,-72.24863 -17.53347,-0.87035 -35.09767,-1.08971 -52.65047,-0.94179 z"
         id="path4241"
         inkscape:connector-curvature="0"
         sodipodi:nodetypes="cccccccccccccccccccccccccccccc" />
      <path
         id="path3026"
         d="m 714.66529,364.5553 c -7.98927,-0.01 -15.1954,0.099 -21.16782,0.31393 -78.50683,2.82411 -124.45961,9.39046 -188.94072,18.65638 l -208.80796,30.0027 134.89999,68.70571 -230.69334,13.14019 178.76043,89.29052 -279.397257,40.72114 209.346127,82.60831 -278.634853,61.57503 272.894433,67.49484 -137.32174,49.24209 c 133.38661,54.93917 214.80267,83.69436 350.8835,100.27805 52.66154,6.41768 92.31246,-2.57141 136.51448,-14.39591 30.02831,-8.03286 58.56517,-21.87129 85.25429,-37.80608 30.35736,-18.12491 56.22171,-35.99194 80.85927,-61.3508 18.98717,-19.54303 32.68415,-37.6288 42.20109,-53.5474 17.01416,-28.45893 34.98374,-65.67349 47.26881,-109.5614 l -213.5169,-0.7624 c -7.40835,14.82323 -16.25852,31.53853 -26.77371,46.82035 -10.48041,15.23124 -25.81199,31.12616 -36.59521,38.16485 -10.78321,7.0387 -25.92136,7.01015 -34.35285,7.31008 -8.4315,0.29991 -21.42083,-8.04861 -27.53611,-15.38255 -6.11527,-7.33392 -8.93561,-14.90755 -11.66024,-19.64302 -2.72462,-4.73546 -3.78886,-14.79007 -3.49807,-25.2489 0.2313,-8.31902 1.51885,-16.63575 1.97327,-24.35196 0.45443,-7.71621 4.10979,-28.77441 13.9026,-58.16665 9.7928,-29.39224 35.63218,-67.40637 57.89757,-87.63118 22.26538,-20.22481 41.95089,-25.83083 55.65521,-26.41492 13.70432,-0.58409 25.15196,0.21947 30.94448,7.71369 5.79252,7.49423 7.74582,21.82134 7.53431,33.09714 -0.21152,11.2758 -3.3576,20.69227 -8.61064,40.90053 l 214.09992,-0.35877 C 942.26618,572.90461 953.38136,538.03728 940.11152,486.76357 926.10349,432.63751 876.75787,390.1864 823.1952,374.37681 798.37155,367.04985 749.28543,364.59839 714.66529,364.5553 z m -11.25662,5.78528 c 37.8407,0.42682 76.37665,-0.0144 113.32855,8.47609 54.79187,13.92155 104.46756,56.11536 118.53081,111.93829 11.86753,42.85889 0.36842,87.77804 -11.61539,129.4735 -67.3603,0.11954 -134.7206,0.23923 -202.08091,0.35878 5.80653,-19.68518 9.94971,-41.33686 3.22899,-61.3508 -2.86342,-13.37711 -16.39541,-20.5617 -29.32998,-20.49511 -36.37705,-2.97716 -68.07526,20.78221 -89.51476,47.89667 -36.31001,42.47367 -54.94175,97.91129 -57.00062,153.46668 -1.81328,21.22578 7.30377,42.45416 23.32047,56.23823 15.48272,14.51513 39.07602,12.58301 57.40425,5.38165 32.64511,-19.30805 52.07622,-53.96255 68.88511,-86.82393 l 202.39483,0.7624 c -7.66867,25.31256 -17.46524,49.84176 -29.46452,73.4595 -27.51802,58.18914 -75.06529,104.26333 -129.96682,136.73872 -39.07767,24.94423 -82.85963,41.47805 -128.39716,50.18388 -43.94556,10.77884 -89.74601,7.10992 -133.91336,-0.26908 C 376.00669,961.49437 277.35995,926.5953 181.56814,886.66491 228.61654,869.77137 275.6726,852.89914 322.74672,836.07742 233.51657,813.99542 144.28519,791.91838 55.054553,769.83829 146.10921,749.73252 237.16265,729.6213 328.21807,709.51898 259.30355,682.31053 190.38799,655.10473 121.47307,627.89731 213.53442,614.53914 305.57447,601.0344 397.64133,587.71433 339.04289,558.42574 280.44071,529.14462 221.84081,499.85892 c 76.77896,-4.36631 153.56272,-8.64985 230.33456,-13.14019 -45.94023,-23.34716 -91.84638,-46.76139 -137.7702,-70.14082 l 33.27653,-4.75379 c 118.39813,-15.44765 236.03756,-39.04167 355.72697,-41.48354 z"
         style="fill:#000000;stroke:none;display:inline"
         inkscape:connector-curvature="0" />
      <path
         id="path3215"
         d="m 703.49836,387.74124 c -111.80155,2.45637 -221.95902,22.68859 -332.40649,38.34425 48.5753,24.65462 97.10552,49.39815 145.66329,74.08736 -76.41999,4.3851 -152.84027,8.76492 -229.25823,13.18504 55.71066,27.72414 111.27675,55.7375 166.96564,83.50525 -88.76267,12.76966 -266.25706,38.52363 -266.25706,38.52363 0,0 132.4619,52.4901 198.67253,78.66176 -81.2069,18.03466 -254.19321,56.64186 -254.19321,56.64186 l 249.52911,62.42712 c -50.86912,18.14293 -101.70769,36.37139 -152.56974,54.53404 108.32351,41.85756 221.79535,78.0557 339.13356,77.09212 107.81374,-8.07496 212.40047,-65.85027 272.31142,-156.29205 14.97786,-23.66967 26.61847,-49.19437 36.05705,-75.56732 -56.04409,-0.19147 -112.08785,-0.50606 -168.13168,-0.7624 -18.90541,36.45595 -43.6592,75.01835 -84.2228,89.55961 -27.81468,8.47906 -71.58628,-6.44664 -83.86402,-6.90645 -79.05701,-13.96491 -141.09727,-26.75624 -220.15428,-40.72114 76.1151,-16.15502 134.46715,-32.02726 210.55701,-48.3003 l 4.79863,-30.54086 c -60.16829,-15.77697 -166.74141,-45.0713 -166.74141,-45.0713 0,0 120.97493,-18.29975 191.45215,-27.35672 L 576.5363,596.99768 445.89678,538.11347 694.43926,521.16128 c 21.54609,0.60596 43.6957,14.57566 48.1209,36.72975 4.29274,14.78032 3.48885,30.51596 0.94179,45.47493 55.71503,-0.10318 111.43001,-0.25117 167.14504,-0.35878 13.30526,-43.54957 19.96214,-93.88542 -2.78052,-135.483 -29.00409,-52.80255 -90.88062,-80.61734 -149.83407,-78.75146 -18.15885,-0.99603 -36.35211,-1.16614 -54.53404,-1.03148 z m 0.17939,5.74042 c 17.5528,-0.14791 35.117,0.0715 52.65047,0.94179 56.01719,-2.31148 115.29298,23.31662 144.49726,72.24864 23.38202,39.46683 17.99928,88.57108 5.60589,130.59467 -52.1123,0.11954 -104.2246,0.23923 -156.3369,0.35878 1.54179,-10.48846 1.76418,-21.31029 0.0897,-31.79658 -1.67939,-26.53166 -25.03304,-48.08702 -51.03597,-50.13902 -91.84254,5.00334 -183.66288,12.0043 -275.45072,18.43214 47.93369,22.07169 96.18371,43.46553 144.27303,65.20764 -2.21022,6.59069 -10.71845,18.02853 -10.71845,18.02853 L 347.592,648.57181 529.98504,699.249 526.8906,720.64105 298.30507,774.45754 c 0,0 153.6394,29.70334 223.24872,42.64957 34.29335,3.99258 68.60294,18.3737 103.32766,10.49421 41.70356,-13.79893 68.19621,-52.45977 87.63118,-89.73899 52.12716,0.27096 104.2544,0.52614 156.38174,0.7624 -6.13217,16.51385 -13.38909,32.56349 -21.66114,48.03121 C 792.21797,885.55609 683.36402,949.34974 571.55828,958.68931 459.2021,960.68379 350.19132,927.23497 246.23762,887.83094 298.15882,869.2315 350.09326,850.66912 402.03635,832.13087 320.52679,811.77038 239.03109,791.3543 157.53011,770.95947 240.47733,752.47534 323.42999,734.01567 406.38651,715.57333 340.98153,689.59672 275.66661,663.90329 210.27027,637.94305 298.00795,625.27902 385.72269,612.45614 473.47773,599.91274 418.71731,572.68013 364.0988,545.16327 309.3823,517.84259 385.68112,513.43009 461.98658,509.13262 538.28175,504.65756 488.77048,479.513 439.284,454.31968 389.7931,429.13509 494.03021,413.98276 598.13275,395.87933 703.67775,393.48166 z"
         style="fill:#000000;fill-opacity:1;stroke:none;display:inline"
         inkscape:connector-curvature="0" />
      <path
         style="fill:#d40000;fill-opacity:1;stroke:none;display:inline"
         d="m 510.74565,549.70242 c 23.93338,9.59727 47.86678,19.19455 71.80016,28.79182 10.02258,-13.23748 22.38552,-24.75429 35.38434,-35.16011 -35.72816,2.12277 -71.45634,4.24552 -107.1845,6.36829 z"
         id="path3229"
         inkscape:connector-curvature="0" />
      <path
         style="fill:#d40000;fill-opacity:1;stroke:none;display:inline"
         d="m 450.02271,654.73426 c 28.38351,7.16981 56.73179,14.46991 85.20944,21.25751 2.93475,-11.66912 6.59528,-23.0903 11.12208,-34.21831 -32.11051,4.32027 -64.22101,8.64053 -96.33152,12.9608 z"
         id="path3227"
         inkscape:connector-curvature="0" />
      <path
         style="fill:#d40000;fill-opacity:1;stroke:none;display:inline"
         d="m 401.27395,772.95114 c 46.41086,7.46178 92.73324,15.47784 139.20531,22.55808 -8.88361,-14.76556 -13.7356,-31.80795 -14.62015,-49.01785 -41.52839,8.81992 -83.05677,17.63985 -124.58516,26.45977 z"
         id="path3225"
         inkscape:connector-curvature="0" />
      <path
         id="path3130"
         d="m 531.3753,739.38713 -161.31491,34.26316 183.82814,30.09239 C 539.629,789.02806 531.00454,762.5714 531.3753,739.38713 z m -5.51619,7.08584 c 0.88455,17.20989 5.73654,34.25228 14.62015,49.01785 -46.47207,-7.08024 -92.79445,-15.0963 -139.20531,-22.55808 l 124.58516,-26.45977 z"
         style="fill:#000000;stroke:none;display:inline"
         inkscape:connector-curvature="0" />
      <path
         id="path3126"
         d="m 555.68242,634.71406 -136.06602,18.3873 119.83138,30.04754 c 3.51042,-15.97514 9.32371,-33.59533 16.23464,-48.43484 z m -9.32819,7.04099 c -4.5268,11.12802 -8.18733,22.5492 -11.12208,34.21832 -28.47765,-6.78761 -56.82593,-14.08771 -85.20944,-21.25751 l 96.33152,-12.96081 z"
         style="fill:#000000;stroke:none;display:inline"
         inkscape:connector-curvature="0" />
      <path
         id="path3122"
         d="m 637.07985,536.40928 -152.25581,9.05911 99.73989,39.95874 c 11.12355,-16.23985 33.43511,-36.48679 52.51592,-49.01785 z m -19.1497,6.90645 c -12.99882,10.40581 -25.36176,21.92263 -35.38434,35.16011 l -71.80016,-28.79182 107.1845,-6.36829 z"
         style="fill:#000000;stroke:none;display:inline"
         inkscape:connector-curvature="0" />
    </g>
  </g>
</svg>
