<svg xmlns="http://www.w3.org/2000/svg" viewBox="0 0 148.57 146.6">
  <defs>
    <style>.cls-1{fill:#fff;}.cls-2{fill:#dd1f28;}</style>
  </defs>
  <path class="cls-2" d="M74.18,146.6a5.39,5.39,0,0,1-3.2-1.1l-.1-.1C-10.12,77.5.18,26.2.68,24.1A5.11,5.11,0,0,1,2,21.7C21,2.5,64.18.3,73.58,0H75c9.3.3,52.5,2.5,71.6,21.7a4.74,4.74,0,0,1,1.3,2.4c.5,2.1,10.8,53.4-70.3,121.3l-.1.1A5.68,5.68,0,0,1,74.18,146.6Zm-64.1-119c-.4,3.6-.8,14.3,4.8,30.1,6.3,17.7,21.7,45.3,59.3,77.5,66.2-56.7,65-99.6,64.1-107.6-14.4-13-46.7-17.3-64-17.7h-.2C56.88,10.3,24.48,14.6,10.08,27.6Z"/>
  <path class="cls-1" d="M74.48,4.9h0c5.3.1,50.2,1.8,68.5,20.2,0,0,11.1,49.7-68.7,116.4v.2l-.1-.1-.1.1v-.2C-5.62,74.9,5.48,25.2,5.48,25.2,23.78,6.8,68.68,5.1,74,5h.3a.31.31,0,0,1,.2-.1"/>
  <path class="cls-2" d="M138.08,27S118.18,9.2,74.48,9.1h-.2C30.58,9.2,10.68,27,10.68,27c-2.9,17.1,6.3,35.5,5.9,36a132.25,132.25,0,0,1,19-9.7A146.64,146.64,0,0,1,32,37.9C44.58,30.2,60,30,60,30v93.1c4.7,4.2,12.7,11,14.2,12.3v.2l.1-.1.1.1v-.2c1.5-1.3,9.5-8.1,14.2-12.3V30s15.4.1,28,7.9A146.64,146.64,0,0,1,113,53.3,132.25,132.25,0,0,1,132,63C131.68,62.5,141,44.1,138.08,27Z"/>
</svg>
